<svg width="465" height="288" viewBox="0 0 465 288" fill="none" xmlns="http://www.w3.org/2000/svg">
<path d="M9.6 234.2C9.6 233.4 10.1333 232.733 11.2 232.2C12.2667 231.533 13.4667 231 14.8 230.6C16.2667 230.067 17.7333 229.6 19.2 229.2C20.6667 228.8 21.7333 228.4 22.4 228V118.4C21.7333 118 20.6667 117.667 19.2 117.4C17.7333 117 16.2667 116.533 14.8 116C13.4667 115.467 12.2667 114.933 11.2 114.4C10.1333 113.733 9.6 113 9.6 112.2C9.6 111.4 9.8 110.4 10.2 109.2C10.7333 108 11.8 107.4 13.4 107.4H77.8C80.0667 107.4 82.2 107.467 84.2 107.6C86.3333 107.6 88.2 107.8 89.8 108.2C91.4 108.6 92.6667 109.2 93.6 110C94.6667 110.8 95.2 111.933 95.2 113.4C95.2 115 95 117.4 94.6 120.6C94.2 123.667 93.6667 126.733 93 129.8C92.4667 132.867 91.7333 135.6 90.8 138C90 140.267 89.0667 141.4 88 141.4C86.1333 141.4 84.7333 140.133 83.8 137.6C82.8667 134.933 81.9333 132.067 81 129C80.0667 125.8 78.8667 122.933 77.4 120.4C75.9333 117.733 73.7333 116.4 70.8 116.4H40.2V167.6L78.4 166.2C80.6667 166.333 81.8 167.133 81.8 168.6C81.8 169.4 81.6 170.467 81.2 171.8C80.8 173 80.2667 174.2 79.6 175.4C78.9333 176.6 78.2 177.667 77.4 178.6C76.6 179.533 75.7333 180.067 74.8 180.2L40.2 178.4V227.6C41.8 228 43.8667 228.333 46.4 228.6C49.0667 228.733 51.6667 229 54.2 229.4C56.8667 229.8 59.1333 230.4 61 231.2C62.8667 231.867 63.8 232.867 63.8 234.2C63.8 234.867 63.4667 235.867 62.8 237.2C62.2667 238.4 61.2667 239 59.8 239H13.4C11.8 239 10.7333 238.4 10.2 237.2C9.8 236 9.6 235 9.6 234.2ZM106.2 235C106.2 234.333 106.6 233.733 107.4 233.2C108.333 232.533 109.4 231.933 110.6 231.4C111.8 230.867 113 230.4 114.2 230C115.4 229.467 116.267 229.067 116.8 228.8V107.2C113.867 106.8 111.333 106.2 109.2 105.4C107.2 104.6 106.2 103.8 106.2 103C106.2 101.133 107 99.6667 108.6 98.6C110.2 97.5333 112.133 96.6667 114.4 96C116.8 95.3333 119.267 94.9333 121.8 94.8C124.467 94.5333 126.867 94.4 129 94.4C131.533 94.4 133.067 95 133.6 96.2V224.2C133.6 226.2 134.333 227.6 135.8 228.4C137.267 229.067 138.867 229.6 140.6 230C142.467 230.267 144.133 230.667 145.6 231.2C147.067 231.733 147.8 232.867 147.8 234.6C147.8 237.533 145.533 239 141 239H110C108.4 239 107.333 238.533 106.8 237.6C106.4 236.667 106.2 235.8 106.2 235ZM158.777 218.8C158.777 212.8 160.31 207.733 163.377 203.6C166.443 199.467 170.51 196.067 175.577 193.4C180.643 190.6 186.377 188.467 192.777 187C199.31 185.533 205.977 184.533 212.777 184V179.6C212.777 176.4 212.577 173.2 212.177 170C211.777 166.8 210.843 163.867 209.377 161.2C207.777 158.533 205.577 156.867 202.777 156.2C200.11 155.4 197.443 155 194.777 155C191.177 155 188.377 155.133 186.377 155.4C184.377 155.533 182.843 155.867 181.777 156.4C180.843 156.933 180.243 157.733 179.977 158.8C179.843 159.733 179.777 161.067 179.777 162.8C179.777 164.667 179.977 165.867 180.377 166.4C180.91 166.8 181.177 167.333 181.177 168C181.177 169.067 180.71 170.2 179.777 171.4C178.977 172.467 177.91 173.467 176.577 174.4C175.377 175.2 173.977 175.867 172.377 176.4C170.91 176.933 169.51 177.2 168.177 177.2C165.11 177.2 163.243 176.333 162.577 174.6C161.91 172.733 161.577 171.133 161.577 169.8C161.577 166.6 163.11 163.467 166.177 160.4C169.377 157.333 173.177 154.533 177.577 152C182.11 149.467 186.777 147.467 191.577 146C196.377 144.4 200.443 143.6 203.777 143.6C209.377 143.6 213.91 144.467 217.377 146.2C220.977 147.933 223.71 150.2 225.577 153C227.443 155.8 228.71 159 229.377 162.6C230.043 166.067 230.377 169.6 230.377 173.2V230.4C231.843 230.4 233.377 230.133 234.977 229.6C236.577 228.933 238.177 228.6 239.777 228.6C241.243 228.6 242.177 228.867 242.577 229.4C243.11 229.933 243.377 230.667 243.377 231.6C243.377 232.133 242.843 233 241.777 234.2C240.71 235.267 239.177 236.4 237.177 237.6C235.31 238.8 233.11 239.867 230.577 240.8C228.043 241.733 225.243 242.2 222.177 242.2C219.643 242.2 217.443 241.667 215.577 240.6C213.71 239.533 212.777 237.733 212.777 235.2V227.6C209.31 231.867 205.51 235.4 201.377 238.2C197.243 240.867 192.243 242.2 186.377 242.2C181.443 242.2 177.177 241.467 173.577 240C170.11 238.533 167.243 236.667 164.977 234.4C162.843 232 161.243 229.467 160.177 226.8C159.243 224 158.777 221.333 158.777 218.8ZM177.577 212.2C177.577 217.533 178.91 222 181.577 225.6C184.243 229.2 189.177 231 196.377 231C199.043 231 201.843 230 204.777 228C207.843 226 210.51 223.4 212.777 220.2V193.2C209.043 193.333 205.11 193.733 200.977 194.4C196.843 194.933 193.043 195.867 189.577 197.2C186.11 198.533 183.243 200.4 180.977 202.8C178.71 205.2 177.577 208.333 177.577 212.2ZM254.694 235C254.694 234.333 255.227 233.667 256.294 233C257.36 232.333 258.627 231.733 260.094 231.2C261.56 230.533 262.96 230 264.294 229.6C265.76 229.067 266.894 228.6 267.694 228.2V163C266.36 162.733 264.894 162.4 263.294 162C261.827 161.467 260.427 160.933 259.094 160.4C257.894 159.867 256.827 159.333 255.894 158.8C255.094 158.267 254.694 157.733 254.694 157.2C254.694 155.867 255.494 154.533 257.094 153.2C258.694 151.733 260.694 150.467 263.094 149.4C265.494 148.333 268.027 147.467 270.694 146.8C273.36 146 275.76 145.6 277.894 145.6C279.094 145.6 280.427 145.733 281.894 146C283.36 146.267 284.227 146.8 284.494 147.6V224.2C284.494 226.2 285.227 227.6 286.694 228.4C288.16 229.067 289.76 229.6 291.494 230C293.227 230.4 294.827 230.867 296.294 231.4C297.76 231.933 298.494 233 298.494 234.6C298.494 237.533 296.227 239 291.694 239H258.494C256.894 239 255.827 238.533 255.294 237.6C254.894 236.667 254.694 235.8 254.694 235ZM276.094 128.2C273.16 128.2 270.694 127.867 268.694 127.2C266.694 126.4 265.16 125.533 264.094 124.6C263.027 123.667 262.227 122.733 261.694 121.8C261.294 120.867 261.094 120.2 261.094 119.8C261.094 118.733 261.427 117.467 262.094 116C262.76 114.533 263.627 113.2 264.694 112C265.76 110.667 266.96 109.6 268.294 108.8C269.627 107.867 270.96 107.4 272.294 107.4C278.16 107.4 282.227 108.467 284.494 110.6C286.76 112.733 287.894 114.733 287.894 116.6C287.894 117.8 287.494 119.067 286.694 120.4C286.027 121.733 285.094 123 283.894 124.2C282.827 125.267 281.56 126.2 280.094 127C278.76 127.8 277.427 128.2 276.094 128.2ZM308.348 235C308.348 234.333 308.748 233.733 309.548 233.2C310.482 232.533 311.548 231.933 312.748 231.4C313.948 230.867 315.148 230.4 316.348 230C317.548 229.467 318.415 229.067 318.948 228.8V107.2C316.015 106.8 313.482 106.2 311.348 105.4C309.348 104.6 308.348 103.8 308.348 103C308.348 101.133 309.148 99.6667 310.748 98.6C312.348 97.5333 314.282 96.6667 316.548 96C318.948 95.3333 321.415 94.9333 323.948 94.8C326.615 94.5333 329.015 94.4 331.148 94.4C333.682 94.4 335.215 95 335.748 96.2V224.2C335.748 226.2 336.482 227.6 337.948 228.4C339.415 229.067 341.015 229.6 342.748 230C344.615 230.267 346.282 230.667 347.748 231.2C349.215 231.733 349.948 232.867 349.948 234.6C349.948 237.533 347.682 239 343.148 239H312.148C310.548 239 309.482 238.533 308.948 237.6C308.548 236.667 308.348 235.8 308.348 235ZM369.125 254.8C370.992 254.8 372.192 255.4 372.725 256.6C373.258 257.933 373.725 259.4 374.125 261C374.658 262.6 375.458 264 376.525 265.2C377.592 266.533 379.592 267.2 382.525 267.2C385.725 267.2 388.592 265.2 391.125 261.2C393.792 257.333 396.058 252.667 397.925 247.2L360.725 160L355.925 156.6C353.525 156.333 352.058 155.733 351.525 154.8C350.992 153.867 350.725 152.2 350.725 149.8C350.725 149.267 350.858 148.733 351.125 148.2C351.392 147.667 352.458 147.4 354.325 147.4H384.725C386.192 147.4 387.258 147.933 387.925 149C388.592 150.067 388.925 151.067 388.925 152C388.925 153.467 387.792 154.533 385.525 155.2C383.392 155.733 380.925 156.2 378.125 156.6L395.925 202.8L404.525 229.4L410.925 202.8L426.525 156.6C425.192 156.333 423.725 156.133 422.125 156C420.525 155.733 418.992 155.467 417.525 155.2C416.192 154.8 415.058 154.333 414.125 153.8C413.325 153.267 412.925 152.667 412.925 152C412.925 151.067 413.258 150.067 413.925 149C414.725 147.933 415.858 147.4 417.325 147.4H446.525C448.525 147.4 449.925 147.667 450.725 148.2C451.658 148.733 452.125 149.267 452.125 149.8C452.125 152.2 450.925 153.933 448.525 155C446.125 155.933 443.525 156.533 440.725 156.8L408.325 247.4C405.792 253.933 403.192 259.4 400.525 263.8C397.858 268.2 395.125 271.733 392.325 274.4C389.525 277.2 386.658 279.133 383.725 280.2C380.792 281.4 377.792 282 374.725 282C372.992 282 371.192 281.6 369.325 280.8C367.458 280 365.725 278.867 364.125 277.4C362.658 275.933 361.392 274.2 360.325 272.2C359.392 270.333 358.925 268.2 358.925 265.8C358.925 263.267 359.592 260.8 360.925 258.4C362.392 256 365.125 254.8 369.125 254.8Z" fill="white"/>
<ellipse cx="276.5" cy="111.228" rx="17.8043" ry="18.2283" fill="#E04437"/>
<ellipse cx="273.533" cy="115.892" rx="16.5326" ry="16.1087" fill="#FFBE70"/>
<circle cx="270.989" cy="118.011" r="13.9891" fill="white"/>
</svg>
